<svg width="63" height="62" viewBox="0 0 63 62" fill="none" xmlns="http://www.w3.org/2000/svg">
<path d="M61.5176 31.2412C61.5176 14.2536 47.7465 0.482422 30.7588 0.482422C13.7711 0.482422 0 14.2536 0 31.2412C0 48.2289 13.7711 62.0001 30.7588 62.0001H52.92H62.58V56.9601L47.7403 56.8736C56.3399 51.1802 61.5139 41.5555 61.5176 31.2412ZM45.8253 51.9787C42.3898 54.4743 37.5799 53.7134 35.0843 50.2765C32.5886 46.8409 33.3496 42.0324 36.7852 39.5355C40.222 37.0398 45.0306 37.8008 47.5262 41.2376C50.0231 44.6732 49.2609 49.4818 45.8253 51.9787ZM45.4474 18.3838C49.4862 17.0709 53.8242 19.2811 55.1371 23.32C56.4487 27.3601 54.2385 31.6981 50.1996 33.0097C46.1608 34.3226 41.8228 32.1123 40.5099 28.0735C39.1982 24.0346 41.4085 19.6954 45.4474 18.3838ZM30.7588 5.60889C35.0054 5.60889 38.4485 9.05199 38.4485 13.2986C38.4485 17.5452 35.0054 20.9883 30.7588 20.9883C26.5122 20.9883 23.0691 17.5452 23.0691 13.2986C23.0691 9.05199 26.5122 5.60889 30.7588 5.60889ZM6.38055 23.32C7.69346 19.2811 12.0314 17.0709 16.0703 18.3825C20.1091 19.6954 22.3194 24.0334 21.0078 28.0722C19.6949 32.1111 15.3569 34.3214 11.318 33.0097C7.27919 31.6981 5.0689 27.3601 6.38055 23.32ZM26.4334 50.2765C23.9377 53.7134 19.1279 54.4743 15.6923 51.9787C12.2567 49.4818 11.4945 44.6732 13.9914 41.2376C16.4871 37.802 21.2969 37.0398 24.7325 39.5367C28.1681 42.0324 28.929 46.8409 26.4334 50.2765ZM28.1956 31.2412C28.1956 29.8257 29.3433 28.678 30.7588 28.678C32.1744 28.678 33.3221 29.8257 33.3221 31.2412C33.3221 32.6568 32.1744 33.8045 30.7588 33.8045C29.3433 33.8045 28.1956 32.6568 28.1956 31.2412Z" fill="#252525"/>
</svg>
