<svg width="428" height="74" viewBox="0 0 428 74" fill="none" xmlns="http://www.w3.org/2000/svg">
<path d="M71.404 63V30.34H85.25C86.7527 30.34 88.1327 30.6467 89.39 31.26C90.678 31.8733 91.782 32.7013 92.702 33.744C93.622 34.7867 94.3427 35.952 94.864 37.24C95.3853 38.528 95.646 39.8467 95.646 41.196C95.646 43.036 95.2167 44.784 94.358 46.44C93.4993 48.096 92.3033 49.4453 90.77 50.488C89.2673 51.5307 87.504 52.052 85.48 52.052H77.752V63H71.404ZM77.752 46.486H85.112C86.2773 46.486 87.2433 46.0107 88.01 45.06C88.8073 44.0787 89.206 42.7907 89.206 41.196C89.206 39.5093 88.7613 38.206 87.872 37.286C86.9827 36.366 85.9707 35.906 84.836 35.906H77.752V46.486ZM110.644 63.46C108.037 63.46 105.783 62.8927 103.882 61.758C102.011 60.6233 100.555 59.1207 99.5122 57.25C98.4695 55.3487 97.9482 53.294 97.9482 51.086C97.9482 48.8167 98.4542 46.7313 99.4662 44.83C100.509 42.898 101.981 41.3647 103.882 40.23C105.783 39.0647 108.053 38.482 110.69 38.482C113.327 38.482 115.581 39.0647 117.452 40.23C119.323 41.3647 120.749 42.8827 121.73 44.784C122.742 46.6547 123.248 48.6787 123.248 50.856C123.248 51.6533 123.202 52.3433 123.11 52.926H104.48C104.633 54.7967 105.323 56.2687 106.55 57.342C107.807 58.4153 109.249 58.952 110.874 58.952C112.101 58.952 113.251 58.6607 114.324 58.078C115.428 57.4647 116.179 56.6673 116.578 55.686L121.868 57.158C120.979 58.998 119.553 60.516 117.59 61.712C115.627 62.8773 113.312 63.46 110.644 63.46ZM104.342 49.016H116.946C116.762 47.2067 116.072 45.75 114.876 44.646C113.711 43.5113 112.285 42.944 110.598 42.944C108.942 42.944 107.516 43.5113 106.32 44.646C105.155 45.75 104.495 47.2067 104.342 49.016ZM127.003 63V38.896H133.167V48.004H135.237L141.769 38.896H148.485L139.929 50.534L149.405 63H142.367L135.145 53.432H133.167V63H127.003ZM163.112 63.46C160.474 63.46 158.205 62.8927 156.304 61.758C154.433 60.5927 152.992 59.0593 151.98 57.158C150.968 55.2567 150.462 53.202 150.462 50.994C150.462 48.7553 150.968 46.6853 151.98 44.784C153.022 42.8827 154.479 41.3647 156.35 40.23C158.251 39.0647 160.505 38.482 163.112 38.482C165.718 38.482 167.957 39.0647 169.828 40.23C171.729 41.3647 173.186 42.8827 174.198 44.784C175.21 46.6853 175.716 48.7553 175.716 50.994C175.716 53.202 175.21 55.2567 174.198 57.158C173.186 59.0593 171.729 60.5927 169.828 61.758C167.957 62.8927 165.718 63.46 163.112 63.46ZM156.81 50.994C156.81 52.4047 157.086 53.662 157.638 54.766C158.19 55.8393 158.941 56.6827 159.892 57.296C160.842 57.9093 161.916 58.216 163.112 58.216C164.277 58.216 165.335 57.9093 166.286 57.296C167.236 56.652 167.988 55.7933 168.54 54.72C169.122 53.616 169.414 52.3587 169.414 50.948C169.414 49.568 169.122 48.3413 168.54 47.268C167.988 46.164 167.236 45.3053 166.286 44.692C165.335 44.048 164.277 43.726 163.112 43.726C161.916 43.726 160.842 44.048 159.892 44.692C158.941 45.3053 158.19 46.164 157.638 47.268C157.086 48.3413 156.81 49.5833 156.81 50.994ZM179.876 63V38.896H186.316L193.86 52.834L201.45 38.896H207.798V63H201.956V47.406L195.792 58.722H191.928L185.718 47.406V63H179.876ZM224.656 63.46C222.049 63.46 219.795 62.8927 217.894 61.758C216.023 60.6233 214.567 59.1207 213.524 57.25C212.481 55.3487 211.96 53.294 211.96 51.086C211.96 48.8167 212.466 46.7313 213.478 44.83C214.521 42.898 215.993 41.3647 217.894 40.23C219.795 39.0647 222.065 38.482 224.702 38.482C227.339 38.482 229.593 39.0647 231.464 40.23C233.335 41.3647 234.761 42.8827 235.742 44.784C236.754 46.6547 237.26 48.6787 237.26 50.856C237.26 51.6533 237.214 52.3433 237.122 52.926H218.492C218.645 54.7967 219.335 56.2687 220.562 57.342C221.819 58.4153 223.261 58.952 224.886 58.952C226.113 58.952 227.263 58.6607 228.336 58.078C229.44 57.4647 230.191 56.6673 230.59 55.686L235.88 57.158C234.991 58.998 233.565 60.516 231.602 61.712C229.639 62.8773 227.324 63.46 224.656 63.46ZM218.354 49.016H230.958C230.774 47.2067 230.084 45.75 228.888 44.646C227.723 43.5113 226.297 42.944 224.61 42.944C222.954 42.944 221.528 43.5113 220.332 44.646C219.167 45.75 218.507 47.2067 218.354 49.016ZM241.015 63V38.896H247.179V48.096H256.931V38.896H263.095V63H256.931V53.248H247.179V63H241.015ZM266.754 68.842V57.618H267.398C268.195 57.618 268.931 57.3113 269.606 56.698C270.28 56.0847 270.832 54.9807 271.262 53.386C271.722 51.7913 271.998 49.4913 272.09 46.486L272.366 38.896H290.444V57.618H293.802V68.842H288.42V63H272.182V68.842H266.754ZM275.172 57.618H284.28V44.094H277.748L277.61 47.084C277.487 50.1507 277.226 52.4967 276.828 54.122C276.429 55.7473 275.877 56.9127 275.172 57.618ZM296.14 55.87C296.14 54.306 296.57 52.9413 297.428 51.776C298.318 50.58 299.544 49.66 301.108 49.016C302.672 48.372 304.466 48.05 306.49 48.05C307.502 48.05 308.53 48.142 309.572 48.326C310.615 48.4793 311.52 48.7093 312.286 49.016V47.728C312.286 46.1947 311.826 45.014 310.906 44.186C310.017 43.358 308.683 42.944 306.904 42.944C305.586 42.944 304.328 43.174 303.132 43.634C301.936 44.094 300.679 44.7687 299.36 45.658L297.382 41.61C298.977 40.5673 300.602 39.7853 302.258 39.264C303.945 38.7427 305.708 38.482 307.548 38.482C310.983 38.482 313.651 39.3407 315.552 41.058C317.484 42.7753 318.45 45.2287 318.45 48.418V56.1C318.45 56.7747 318.558 57.25 318.772 57.526C318.987 57.7713 319.37 57.9247 319.922 57.986V63C319.37 63.1227 318.864 63.1993 318.404 63.23C317.975 63.2913 317.607 63.322 317.3 63.322C316.074 63.322 315.138 63.046 314.494 62.494C313.85 61.942 313.467 61.2673 313.344 60.47L313.206 59.228C312.133 60.608 310.814 61.666 309.25 62.402C307.717 63.1073 306.138 63.46 304.512 63.46C302.887 63.46 301.446 63.138 300.188 62.494C298.931 61.8193 297.934 60.9147 297.198 59.78C296.493 58.6147 296.14 57.3113 296.14 55.87ZM311.136 57.112C311.903 56.376 312.286 55.6707 312.286 54.996V52.558C310.692 51.914 309.082 51.592 307.456 51.592C305.831 51.592 304.512 51.9447 303.5 52.65C302.488 53.3247 301.982 54.2293 301.982 55.364C301.982 56.284 302.35 57.112 303.086 57.848C303.822 58.584 304.88 58.952 306.26 58.952C307.18 58.952 308.07 58.7833 308.928 58.446C309.818 58.1087 310.554 57.664 311.136 57.112ZM335.434 63.46C332.828 63.46 330.574 62.8773 328.672 61.712C326.771 60.5467 325.299 59.0133 324.256 57.112C323.214 55.2107 322.692 53.156 322.692 50.948C322.692 48.7093 323.198 46.6393 324.21 44.738C325.253 42.8367 326.725 41.3187 328.626 40.184C330.528 39.0493 332.782 38.482 335.388 38.482C338.026 38.482 340.264 39.0493 342.104 40.184C343.975 41.3187 345.37 42.806 346.29 44.646L340.264 46.486C339.191 44.646 337.55 43.726 335.342 43.726C334.146 43.726 333.073 44.0327 332.122 44.646C331.172 45.2287 330.42 46.072 329.868 47.176C329.316 48.2493 329.04 49.5067 329.04 50.948C329.04 52.3587 329.316 53.616 329.868 54.72C330.451 55.7933 331.218 56.652 332.168 57.296C333.119 57.9093 334.177 58.216 335.342 58.216C336.446 58.216 337.458 57.9553 338.378 57.434C339.329 56.882 339.988 56.192 340.356 55.364L346.382 57.204C345.554 59.0133 344.174 60.516 342.242 61.712C340.341 62.8773 338.072 63.46 335.434 63.46ZM350.175 63V38.896H356.339V46.486H361.813C364.696 46.486 366.904 47.222 368.437 48.694C369.97 50.166 370.737 52.1133 370.737 54.536C370.737 57.02 370.001 59.0593 368.529 60.654C367.088 62.218 364.987 63 362.227 63H350.175ZM356.339 58.308H361.261C362.518 58.308 363.438 57.9553 364.021 57.25C364.604 56.514 364.895 55.6247 364.895 54.582C364.895 53.57 364.619 52.7267 364.067 52.052C363.515 51.3467 362.564 50.994 361.215 50.994H356.339V58.308ZM385.745 63.46C383.107 63.46 380.838 62.8927 378.937 61.758C377.066 60.5927 375.625 59.0593 374.613 57.158C373.601 55.2567 373.095 53.202 373.095 50.994C373.095 48.7553 373.601 46.6853 374.613 44.784C375.655 42.8827 377.112 41.3647 378.983 40.23C380.884 39.0647 383.138 38.482 385.745 38.482C388.351 38.482 390.59 39.0647 392.461 40.23C394.362 41.3647 395.819 42.8827 396.831 44.784C397.843 46.6853 398.349 48.7553 398.349 50.994C398.349 53.202 397.843 55.2567 396.831 57.158C395.819 59.0593 394.362 60.5927 392.461 61.758C390.59 62.8927 388.351 63.46 385.745 63.46ZM379.443 50.994C379.443 52.4047 379.719 53.662 380.271 54.766C380.823 55.8393 381.574 56.6827 382.525 57.296C383.475 57.9093 384.549 58.216 385.745 58.216C386.91 58.216 387.968 57.9093 388.919 57.296C389.869 56.652 390.621 55.7933 391.173 54.72C391.755 53.616 392.047 52.3587 392.047 50.948C392.047 49.568 391.755 48.3413 391.173 47.268C390.621 46.164 389.869 45.3053 388.919 44.692C387.968 44.048 386.91 43.726 385.745 43.726C384.549 43.726 383.475 44.048 382.525 44.692C381.574 45.3053 380.823 46.164 380.271 47.268C379.719 48.3413 379.443 49.5833 379.443 50.994ZM402.509 63V38.896H408.673V48.096H418.425V38.896H424.589V63H418.425V53.248H408.673V63H402.509Z" fill="#252525"/>
<g clip-path="url(#clip0)">
<path d="M61.5176 32.2412C61.5176 15.2536 47.7465 1.48242 30.7588 1.48242C13.7711 1.48242 0 15.2536 0 32.2412C0 49.2289 13.7711 63.0001 30.7588 63.0001H52.92H62.58V57.9601L47.7403 57.8736C56.3399 52.1802 61.5139 42.5555 61.5176 32.2412ZM45.8253 52.9787C42.3898 55.4743 37.5799 54.7134 35.0843 51.2765C32.5886 47.8409 33.3496 43.0324 36.7852 40.5355C40.222 38.0398 45.0306 38.8008 47.5262 42.2376C50.0231 45.6732 49.2609 50.4818 45.8253 52.9787ZM45.4474 19.3838C49.4862 18.0709 53.8242 20.2811 55.1371 24.32C56.4487 28.3601 54.2385 32.6981 50.1996 34.0097C46.1608 35.3226 41.8228 33.1123 40.5099 29.0735C39.1982 25.0346 41.4085 20.6954 45.4474 19.3838ZM30.7588 6.60889C35.0054 6.60889 38.4485 10.052 38.4485 14.2986C38.4485 18.5452 35.0054 21.9883 30.7588 21.9883C26.5122 21.9883 23.0691 18.5452 23.0691 14.2986C23.0691 10.052 26.5122 6.60889 30.7588 6.60889ZM6.38055 24.32C7.69346 20.2811 12.0314 18.0709 16.0703 19.3825C20.1091 20.6954 22.3194 25.0334 21.0078 29.0722C19.6949 33.1111 15.3569 35.3214 11.318 34.0097C7.27919 32.6981 5.0689 28.3601 6.38055 24.32ZM26.4334 51.2765C23.9377 54.7134 19.1279 55.4743 15.6923 52.9787C12.2567 50.4818 11.4945 45.6732 13.9914 42.2376C16.4871 38.802 21.2969 38.0398 24.7325 40.5367C28.1681 43.0324 28.929 47.8409 26.4334 51.2765ZM28.1956 32.2412C28.1956 30.8257 29.3433 29.678 30.7588 29.678C32.1744 29.678 33.3221 30.8257 33.3221 32.2412C33.3221 33.6568 32.1744 34.8045 30.7588 34.8045C29.3433 34.8045 28.1956 33.6568 28.1956 32.2412Z" fill="#252525"/>
</g>
<rect x="62" y="58" width="12" height="5" fill="#252525"/>
<defs>
<clipPath id="clip0">
<rect width="63" height="63" fill="white"/>
</clipPath>
</defs>
</svg>
