<svg width="40" height="44" viewBox="0 0 40 44" fill="none" xmlns="http://www.w3.org/2000/svg">
<path d="M36.1443 16.9228L10.1568 0.903572C8.27664 -0.253923 6.0035 -0.302048 4.076 0.774837C2.14851 1.85155 0.997803 3.81273 0.997803 6.02056V37.9131C0.997803 41.2514 3.68765 43.9819 6.99367 43.9999C7.0027 43.9999 7.01172 44 7.02057 44C8.05372 43.9999 9.13034 43.6761 10.1359 43.0625C10.9448 42.569 11.2005 41.5132 10.707 40.7043C10.2134 39.8953 9.15741 39.6397 8.34874 40.1333C7.8784 40.4201 7.41907 40.5685 7.01215 40.5685C5.76477 40.5617 4.42921 39.4931 4.42921 37.9132V6.02064C4.42921 5.07353 4.92283 4.23245 5.74955 3.77054C6.57636 3.30862 7.55132 3.32925 8.35682 3.8252L34.3445 19.8444C35.1255 20.3253 35.5725 21.1272 35.5706 22.0445C35.5687 22.9617 35.1185 23.7618 34.3331 24.2411L15.544 35.7454C14.7358 36.2402 14.4818 37.2965 14.9766 38.1045C15.4713 38.9127 16.5276 39.1667 17.3358 38.6719L36.1227 27.169C37.9214 26.0716 38.9979 24.1587 39.0022 22.0514C39.0065 19.9444 37.9378 18.0269 36.1443 16.9228Z" fill="#5F27CD"/>
</svg>
